<svg xmlns="http://www.w3.org/2000/svg" viewBox="0 0 640 512">
  <path d="M224 0H48C21.5 0 0 21.5 0 48V464c0 26.5 21.5 48 48 48H320c26.5 0 48-21.5 48-48V160L224 0zM256 136V0l128 128H272c-8.8 0-16-7.2-16-16zm208 176c-11 0-21.7 1.5-31.9 4.3l-4.8-11.5c-2.5-5.9-9.3-8.7-15.3-6.2l-15.1 6.3c-6 2.5-8.9 9.3-6.4 15.4l4.8 11.5c-6.2 5.1-11.9 10.8-16.9 16.9l-11.5-4.8c-6-2.5-12.9 .4-15.4 6.4l-6.3 15.1c-2.5 6 0.3 12.8 6.2 15.3l11.5 4.8c-2.8 10.2-4.3 20.9-4.3 31.9s1.5 21.7 4.3 31.9l-11.5 4.8c-5.9 2.5-8.7 9.3-6.2 15.3l6.3 15.1c2.5 6 9.3 8.9 15.4 6.4l11.5-4.8c5.1 6.2 10.8 11.9 16.9 16.9l-4.8 11.5c-2.5 6 .4 12.9 6.4 15.4l15.1 6.3c6 2.5 12.8-.3 15.3-6.2l4.8-11.5c10.2 2.8 20.9 4.3 31.9 4.3s21.7-1.5 31.9-4.3l4.8 11.5c2.5 5.9 9.3 8.7 15.3 6.2l15.1-6.3c6-2.5 8.9-9.3 6.4-15.4l-4.8-11.5c6.2-5.1 11.9-10.8 16.9-16.9l11.5 4.8c6 2.5 12.9-.4 15.4-6.4l6.3-15.1c2.5-6-.3-12.8-6.2-15.3l-11.5-4.8c2.8-10.2 4.3-20.9 4.3-31.9s-1.5-21.7-4.3-31.9l11.5-4.8c5.9-2.5 8.7-9.3 6.2-15.3l-6.3-15.1c-2.5-6-9.3-8.9-15.4-6.4l-11.5 4.8c-5.1-6.2-10.8-11.9-16.9-16.9l4.8-11.5c2.5-6-.4-12.9-6.4-15.4l-15.1-6.3c-6-2.5-12.8 .3-15.3 6.2l-4.8 11.5c-10.2-2.8-20.9-4.3-31.9-4.3zm0 64a64 64 0 1 1 0 128 64 64 0 1 1 0-128z"/>
</svg>
